<?xml version="1.0" encoding="UTF-8"?>
<svg width="113px" height="40px" viewBox="0 0 113 40" version="1.1" xmlns="http://www.w3.org/2000/svg" xmlns:xlink="http://www.w3.org/1999/xlink">
    <!-- Generator: Sketch 50.2 (55047) - http://www.bohemiancoding.com/sketch -->
    <title>Group 13</title>
    <desc>Created with Sketch.</desc>
    <defs></defs>
    <g id="Page-1" stroke="none" stroke-width="1" fill="none" fill-rule="evenodd">
        <g id="Desktop-Copy-3" transform="translate(-140.000000, -80.000000)">
            <g id="Group-13" transform="translate(140.000000, 80.000000)">
                <circle id="Oval-Copy-3" fill="#E07A5F" cx="20" cy="20" r="20"></circle>
                <path d="M26.75,36.7 C26.9062508,36.7 27.0781241,36.6843752 27.265625,36.653125 C27.4531259,36.6218748 27.6640613,36.551563 27.8984375,36.4421875 C28.1328137,36.332812 28.4010402,36.1791677 28.703125,35.98125 C29.0052098,35.7833323 29.3489564,35.51771 29.734375,35.184375 L29.734375,31.91875 C29.1822889,32.0125005 28.7161477,32.1010413 28.3359375,32.184375 C27.9557273,32.2677088 27.635418,32.3536454 27.375,32.4421875 C27.114582,32.5307296 26.8984384,32.6270828 26.7265625,32.73125 C26.5546866,32.8354172 26.4062506,32.9499994 26.28125,33.075 C26.0104153,33.3458347 25.7916675,33.6270819 25.625,33.91875 C25.4583325,34.2104181 25.375,34.5697895 25.375,34.996875 C25.375,35.33021 25.4218745,35.6062489 25.515625,35.825 C25.6093755,36.0437511 25.7239577,36.2182285 25.859375,36.3484375 C25.9947923,36.4786465 26.1432284,36.5697914 26.3046875,36.621875 C26.4661466,36.6739586 26.6145827,36.7 26.75,36.7 Z M36.34375,37.29375 C35.9062478,37.5958348 35.4348984,37.8901027 34.9296875,38.1765625 C34.4244766,38.4630223 33.9348982,38.7156239 33.4609375,38.934375 C32.9869768,39.1531261 32.5572936,39.3302077 32.171875,39.465625 C31.7864564,39.6010423 31.4895844,39.66875 31.28125,39.66875 C30.8854147,39.66875 30.5468764,39.4526063 30.265625,39.0203125 C29.9843736,38.5880187 29.8125003,37.9968788 29.75,37.246875 C29.2812477,37.7156273 28.8098982,38.1062484 28.3359375,38.41875 C27.8619768,38.7312516 27.403648,38.9812491 26.9609375,39.16875 C26.518227,39.3562509 26.093752,39.486458 25.6875,39.559375 C25.281248,39.632292 24.91146,39.66875 24.578125,39.66875 C24.1197894,39.66875 23.6744813,39.5906258 23.2421875,39.434375 C22.8098937,39.2781242 22.4218767,39.0437516 22.078125,38.73125 C21.7343733,38.4187484 21.4583344,38.0333356 21.25,37.575 C21.0416656,37.1166644 20.9375,36.5854197 20.9375,35.98125 C20.9375,35.3041633 21.0624987,34.7234399 21.3125,34.2390625 C21.5625012,33.7546851 21.8802064,33.3197936 22.265625,32.934375 C22.5156262,32.6843737 22.8046859,32.4421887 23.1328125,32.2078125 C23.4609391,31.9734363 23.9010389,31.7468761 24.453125,31.528125 C25.0052111,31.3093739 25.7031208,31.0958344 26.546875,30.8875 C27.3906292,30.6791656 28.4531186,30.4760427 29.734375,30.278125 L29.734375,28.54375 C29.734375,28.2312484 29.7057295,27.9421888 29.6484375,27.6765625 C29.5911455,27.4109362 29.4921882,27.1843759 29.3515625,26.996875 C29.2109368,26.8093741 29.0208345,26.660938 28.78125,26.5515625 C28.5416655,26.442187 28.2447934,26.3875 27.890625,26.3875 C27.6718739,26.3875 27.450522,26.4317704 27.2265625,26.5203125 C27.002603,26.6088546 26.8046884,26.7364575 26.6328125,26.903125 C26.4609366,27.0697925 26.3255213,27.2755196 26.2265625,27.5203125 C26.1276037,27.7651054 26.0937498,28.0437484 26.125,28.35625 C26.1354167,28.4187503 26.0416677,28.4994787 25.84375,28.5984375 C25.6458323,28.6973963 25.3932307,28.801562 25.0859375,28.9109375 C24.7786443,29.020313 24.440106,29.1270828 24.0703125,29.23125 C23.700519,29.3354172 23.3463559,29.4265621 23.0078125,29.5046875 C22.6692691,29.5828129 22.369793,29.6427081 22.109375,29.684375 C21.848957,29.7260419 21.6770837,29.7364584 21.59375,29.715625 L21.21875,28.79375 C21.479168,28.1374967 21.8854139,27.530732 22.4375,26.9734375 C22.9895861,26.416143 23.6406212,25.9317729 24.390625,25.5203125 C25.1406287,25.1088521 25.960933,24.7859387 26.8515625,24.5515625 C27.742192,24.3171863 28.6562453,24.2 29.59375,24.2 C30.3541705,24.2 31.0104139,24.3015615 31.5625,24.5046875 C32.1145861,24.7078135 32.5677066,24.9838524 32.921875,25.3328125 C33.2760434,25.6817726 33.5364575,26.0932268 33.703125,26.5671875 C33.8697925,27.0411482 33.953125,27.5437473 33.953125,28.075 L33.953125,35.16875 C33.953125,35.6062522 34.0104161,35.9187491 34.125,36.10625 C34.2395839,36.2937509 34.3906241,36.3875 34.578125,36.3875 C34.651042,36.3875 34.723958,36.3822917 34.796875,36.371875 C34.869792,36.3614583 34.9583328,36.3406252 35.0625,36.309375 C35.1666672,36.2781248 35.2890618,36.2338545 35.4296875,36.1765625 C35.5703132,36.1192705 35.7447906,36.0489588 35.953125,35.965625 L36.34375,37.29375 Z M50.785,36.23125 C50.1079133,36.9916705 49.472503,37.5984352 48.87875,38.0515625 C48.284997,38.5046898 47.7172944,38.8510405 47.175625,39.090625 C46.6339556,39.3302095 46.1157316,39.486458 45.6209375,39.559375 C45.1261434,39.632292 44.6339608,39.66875 44.144375,39.66875 C43.2693706,39.66875 42.4308373,39.4994809 41.62875,39.1609375 C40.8266627,38.8223941 40.1209405,38.3354198 39.5115625,37.7 C38.9021845,37.0645802 38.4152102,36.2885463 38.050625,35.371875 C37.6860398,34.4552038 37.50375,33.4187558 37.50375,32.2625 C37.50375,31.1374944 37.7120812,30.0854216 38.12875,29.10625 C38.5454187,28.1270784 39.1313504,27.2755245 39.8865625,26.5515625 C40.6417746,25.8276005 41.5454114,25.2546896 42.5975,24.8328125 C43.6495886,24.4109354 44.8162436,24.2 46.0975,24.2 C46.4412517,24.2 46.8422894,24.2286455 47.300625,24.2859375 C47.7589606,24.3432295 48.209477,24.426562 48.6521875,24.5359375 C49.094898,24.645313 49.5037481,24.7755201 49.87875,24.9265625 C50.2537519,25.0776049 50.5297908,25.2468741 50.706875,25.434375 C50.7172917,25.5177088 50.7016669,25.6765613 50.66,25.9109375 C50.6183331,26.1453137 50.5584379,26.4161443 50.4803125,26.7234375 C50.4021871,27.0307307 50.3110422,27.3588524 50.206875,27.7078125 C50.1027078,28.0567726 49.9985422,28.3874984 49.894375,28.7 C49.7902078,29.0125016 49.6886463,29.2885405 49.5896875,29.528125 C49.4907287,29.7677095 49.4100003,29.9343745 49.3475,30.028125 L48.144375,29.871875 C47.9464573,29.2468719 47.7433344,28.7078148 47.535,28.2546875 C47.3266656,27.8015602 47.0975012,27.4239598 46.8475,27.121875 C46.5974987,26.8197902 46.3214598,26.5958341 46.019375,26.45 C45.7172902,26.3041659 45.3787519,26.23125 45.00375,26.23125 C44.5766645,26.23125 44.1652103,26.3302073 43.769375,26.528125 C43.3735397,26.7260427 43.0245848,27.0437478 42.7225,27.48125 C42.4204152,27.9187522 42.1782301,28.489059 41.9959375,29.1921875 C41.8136449,29.895316 41.7225,30.7572866 41.7225,31.778125 C41.7225,32.5906291 41.8188532,33.311976 42.0115625,33.9421875 C42.2042718,34.572399 42.4751024,35.1036437 42.8240625,35.5359375 C43.1730226,35.9682313 43.5818727,36.296353 44.050625,36.5203125 C44.5193773,36.744272 45.0297889,36.85625 45.581875,36.85625 C45.8735431,36.85625 46.1599986,36.838021 46.44125,36.8015625 C46.7225014,36.765104 47.0271859,36.6843756 47.3553125,36.559375 C47.6834391,36.4343744 48.0480188,36.2572928 48.4490625,36.028125 C48.8501062,35.7989572 49.3214556,35.4968769 49.863125,35.121875 L50.785,36.23125 Z M58.241875,36.7 C58.3981258,36.7 58.5699991,36.6843752 58.7575,36.653125 C58.9450009,36.6218748 59.1559363,36.551563 59.3903125,36.4421875 C59.6246887,36.332812 59.8929152,36.1791677 60.195,35.98125 C60.4970848,35.7833323 60.8408314,35.51771 61.22625,35.184375 L61.22625,31.91875 C60.6741639,32.0125005 60.2080227,32.1010413 59.8278125,32.184375 C59.4476023,32.2677088 59.127293,32.3536454 58.866875,32.4421875 C58.606457,32.5307296 58.3903134,32.6270828 58.2184375,32.73125 C58.0465616,32.8354172 57.8981256,32.9499994 57.773125,33.075 C57.5022903,33.3458347 57.2835425,33.6270819 57.116875,33.91875 C56.9502075,34.2104181 56.866875,34.5697895 56.866875,34.996875 C56.866875,35.33021 56.9137495,35.6062489 57.0075,35.825 C57.1012505,36.0437511 57.2158327,36.2182285 57.35125,36.3484375 C57.4866673,36.4786465 57.6351034,36.5697914 57.7965625,36.621875 C57.9580216,36.6739586 58.1064577,36.7 58.241875,36.7 Z M67.835625,37.29375 C67.3981228,37.5958348 66.9267734,37.8901027 66.4215625,38.1765625 C65.9163516,38.4630223 65.4267732,38.7156239 64.9528125,38.934375 C64.4788518,39.1531261 64.0491686,39.3302077 63.66375,39.465625 C63.2783314,39.6010423 62.9814594,39.66875 62.773125,39.66875 C62.3772897,39.66875 62.0387514,39.4526063 61.7575,39.0203125 C61.4762486,38.5880187 61.3043753,37.9968788 61.241875,37.246875 C60.7731227,37.7156273 60.3017732,38.1062484 59.8278125,38.41875 C59.3538518,38.7312516 58.895523,38.9812491 58.4528125,39.16875 C58.010102,39.3562509 57.585627,39.486458 57.179375,39.559375 C56.773123,39.632292 56.403335,39.66875 56.07,39.66875 C55.6116644,39.66875 55.1663563,39.5906258 54.7340625,39.434375 C54.3017687,39.2781242 53.9137517,39.0437516 53.57,38.73125 C53.2262483,38.4187484 52.9502094,38.0333356 52.741875,37.575 C52.5335406,37.1166644 52.429375,36.5854197 52.429375,35.98125 C52.429375,35.3041633 52.5543737,34.7234399 52.804375,34.2390625 C53.0543762,33.7546851 53.3720814,33.3197936 53.7575,32.934375 C54.0075012,32.6843737 54.2965609,32.4421887 54.6246875,32.2078125 C54.9528141,31.9734363 55.3929139,31.7468761 55.945,31.528125 C56.4970861,31.3093739 57.1949958,31.0958344 58.03875,30.8875 C58.8825042,30.6791656 59.9449936,30.4760427 61.22625,30.278125 L61.22625,28.54375 C61.22625,28.2312484 61.1976045,27.9421888 61.1403125,27.6765625 C61.0830205,27.4109362 60.9840632,27.1843759 60.8434375,26.996875 C60.7028118,26.8093741 60.5127095,26.660938 60.273125,26.5515625 C60.0335405,26.442187 59.7366684,26.3875 59.3825,26.3875 C59.1637489,26.3875 58.942397,26.4317704 58.7184375,26.5203125 C58.494478,26.6088546 58.2965634,26.7364575 58.1246875,26.903125 C57.9528116,27.0697925 57.8173963,27.2755196 57.7184375,27.5203125 C57.6194787,27.7651054 57.5856248,28.0437484 57.616875,28.35625 C57.6272917,28.4187503 57.5335427,28.4994787 57.335625,28.5984375 C57.1377073,28.6973963 56.8851057,28.801562 56.5778125,28.9109375 C56.2705193,29.020313 55.931981,29.1270828 55.5621875,29.23125 C55.192394,29.3354172 54.8382309,29.4265621 54.4996875,29.5046875 C54.1611441,29.5828129 53.861668,29.6427081 53.60125,29.684375 C53.340832,29.7260419 53.1689587,29.7364584 53.085625,29.715625 L52.710625,28.79375 C52.971043,28.1374967 53.3772889,27.530732 53.929375,26.9734375 C54.4814611,26.416143 55.1324962,25.9317729 55.8825,25.5203125 C56.6325037,25.1088521 57.452808,24.7859387 58.3434375,24.5515625 C59.234067,24.3171863 60.1481203,24.2 61.085625,24.2 C61.8460455,24.2 62.5022889,24.3015615 63.054375,24.5046875 C63.6064611,24.7078135 64.0595816,24.9838524 64.41375,25.3328125 C64.7679184,25.6817726 65.0283325,26.0932268 65.195,26.5671875 C65.3616675,27.0411482 65.445,27.5437473 65.445,28.075 L65.445,35.16875 C65.445,35.6062522 65.5022911,35.9187491 65.616875,36.10625 C65.7314589,36.2937509 65.8824991,36.3875 66.07,36.3875 C66.142917,36.3875 66.215833,36.3822917 66.28875,36.371875 C66.361667,36.3614583 66.4502078,36.3406252 66.554375,36.309375 C66.6585422,36.2781248 66.7809368,36.2338545 66.9215625,36.1765625 C67.0621882,36.1192705 67.2366656,36.0489588 67.445,35.965625 L67.835625,37.29375 Z M86.355,37.2625 C85.8758309,37.5854183 85.3706277,37.8927069 84.839375,38.184375 C84.3081223,38.4760431 83.8055232,38.7312489 83.3315625,38.95 C82.8576018,39.1687511 82.4409393,39.3432285 82.0815625,39.4734375 C81.7221857,39.6036465 81.4695841,39.66875 81.32375,39.66875 C80.9279147,39.66875 80.6102095,39.447398 80.370625,39.0046875 C80.1310405,38.561977 79.9539589,37.9187542 79.839375,37.075 C79.3289558,37.5645858 78.870627,37.97604 78.464375,38.309375 C78.058123,38.64271 77.6675019,38.9109365 77.2925,39.1140625 C76.9174981,39.3171885 76.5372936,39.4604163 76.151875,39.54375 C75.7664564,39.6270838 75.3393773,39.66875 74.870625,39.66875 C74.131038,39.66875 73.409691,39.4994809 72.7065625,39.1609375 C72.003434,38.8223941 71.3784402,38.3354198 70.8315625,37.7 C70.2846848,37.0645802 69.8419809,36.2885462 69.5034375,35.371875 C69.1648941,34.4552038 68.995625,33.4187558 68.995625,32.2625 C68.995625,31.1687445 69.1831231,30.1349007 69.558125,29.1609375 C69.9331269,28.1869743 70.4591633,27.3328162 71.13625,26.5984375 C71.8133367,25.8640588 72.6232245,25.2807313 73.5659375,24.8484375 C74.5086505,24.4161437 75.5424944,24.2 76.6675,24.2 C77.1570858,24.2 77.6440601,24.2572911 78.1284375,24.371875 C78.6128149,24.4864589 79.1362472,24.7312481 79.69875,25.10625 L79.69875,19.91875 C79.69875,19.3458305 79.6909376,18.8901059 79.6753125,18.5515625 C79.6596874,18.2130191 79.5893756,17.9526051 79.464375,17.7703125 C79.3393744,17.5880199 79.1336473,17.4630212 78.8471875,17.3953125 C78.5607277,17.3276038 78.1414611,17.2729169 77.589375,17.23125 L77.589375,15.996875 C78.2143781,15.9447914 78.8107263,15.8770838 79.3784375,15.79375 C79.9461487,15.7104162 80.4747892,15.6244796 80.964375,15.5359375 C81.4539608,15.4473954 81.8940605,15.3536463 82.2846875,15.2546875 C82.6753145,15.1557287 83.0060403,15.0645838 83.276875,14.98125 L83.9175,15.60625 L83.9175,34.29375 C83.9175,34.6583352 83.9253124,34.9630196 83.9409375,35.2078125 C83.9565626,35.4526054 83.9773957,35.6505201 84.0034375,35.8015625 C84.0294793,35.9526049 84.0659373,36.064583 84.1128125,36.1375 C84.1596877,36.210417 84.2143747,36.2624998 84.276875,36.29375 C84.3393753,36.3250002 84.4044788,36.3484374 84.4721875,36.3640625 C84.5398962,36.3796876 84.628437,36.3770834 84.7378125,36.35625 C84.847188,36.3354166 84.9904158,36.2963545 85.1675,36.2390625 C85.3445842,36.1817705 85.5685403,36.0906256 85.839375,35.965625 L86.355,37.2625 Z M79.69875,34.95 L79.69875,28.29375 C79.3029147,27.6895803 78.8419818,27.220835 78.3159375,26.8875 C77.7898932,26.554165 77.1831284,26.3875 76.495625,26.3875 C76.0268727,26.3875 75.5919812,26.4786449 75.1909375,26.6609375 C74.7898938,26.8432301 74.4435431,27.1322897 74.151875,27.528125 C73.8602069,27.9239603 73.6310425,28.4343719 73.464375,29.059375 C73.2977075,29.6843781 73.214375,30.4343706 73.214375,31.309375 C73.214375,32.1114623 73.3107282,32.827601 73.5034375,33.4578125 C73.6961468,34.088024 73.9513526,34.6192687 74.2690625,35.0515625 C74.5867724,35.4838563 74.948748,35.8145822 75.355,36.04375 C75.761252,36.2729178 76.1779145,36.3875 76.605,36.3875 C76.865418,36.3875 77.1154155,36.3640627 77.355,36.3171875 C77.5945845,36.2703123 77.8367696,36.192188 78.0815625,36.0828125 C78.3263554,35.973437 78.5815612,35.8250009 78.8471875,35.6375 C79.1128138,35.4499991 79.3966652,35.2208347 79.69875,34.95 Z M87.515,39.2 L87.515,37.903125 C88.2233369,37.7572909 88.7389567,37.5984384 89.061875,37.4265625 C89.3847933,37.2546866 89.54625,37.0958341 89.54625,36.95 L89.54625,29.2 C89.54625,28.6687473 89.5436459,28.2390641 89.5384375,27.9109375 C89.5332291,27.5828109 89.4733339,27.3276051 89.35875,27.1453125 C89.2441661,26.9630199 89.0462514,26.8302088 88.765,26.746875 C88.4837486,26.6635413 88.0670861,26.5958336 87.515,26.54375 L87.515,25.29375 C88.4941716,25.1687494 89.3952042,25.0203134 90.218125,24.8484375 C91.0410458,24.6765616 91.8379128,24.460418 92.60875,24.2 L93.765,24.2 L93.765,36.95 C93.765,37.0750006 93.913436,37.2286449 94.2103125,37.4109375 C94.507189,37.5932301 95.0358295,37.7572909 95.79625,37.903125 L95.79625,39.2 L87.515,39.2 Z M94.39,19.496875 C94.39,19.8718769 94.3170841,20.2104152 94.17125,20.5125 C94.0254159,20.8145848 93.822293,21.0723948 93.561875,21.2859375 C93.301457,21.4994802 92.9967726,21.6635411 92.6478125,21.778125 C92.2988524,21.8927089 91.9160438,21.95 91.499375,21.95 C91.1868734,21.95 90.8873973,21.9161462 90.6009375,21.8484375 C90.3144777,21.7807288 90.0566678,21.6713549 89.8275,21.5203125 C89.5983322,21.3692701 89.4160423,21.1791678 89.280625,20.95 C89.1452077,20.7208322 89.0775,20.4500016 89.0775,20.1375 C89.0775,19.7624981 89.1530201,19.4239598 89.3040625,19.121875 C89.4551049,18.8197902 89.660832,18.5645844 89.92125,18.35625 C90.181668,18.1479156 90.4863524,17.9864589 90.8353125,17.871875 C91.1842726,17.7572911 91.561873,17.7 91.968125,17.7 C92.2702098,17.7 92.5670819,17.7338538 92.85875,17.8015625 C93.1504181,17.8692712 93.408228,17.9760409 93.6321875,18.121875 C93.856147,18.2677091 94.0384368,18.452603 94.1790625,18.6765625 C94.3196882,18.900522 94.39,19.1739567 94.39,19.496875 Z M103.409375,36.7 C103.565626,36.7 103.737499,36.6843752 103.925,36.653125 C104.112501,36.6218748 104.323436,36.551563 104.557812,36.4421875 C104.792189,36.332812 105.060415,36.1791677 105.3625,35.98125 C105.664585,35.7833323 106.008331,35.51771 106.39375,35.184375 L106.39375,31.91875 C105.841664,32.0125005 105.375523,32.1010413 104.995312,32.184375 C104.615102,32.2677088 104.294793,32.3536454 104.034375,32.4421875 C103.773957,32.5307296 103.557813,32.6270828 103.385937,32.73125 C103.214062,32.8354172 103.065626,32.9499994 102.940625,33.075 C102.66979,33.3458347 102.451042,33.6270819 102.284375,33.91875 C102.117707,34.2104181 102.034375,34.5697895 102.034375,34.996875 C102.034375,35.33021 102.08125,35.6062489 102.175,35.825 C102.26875,36.0437511 102.383333,36.2182285 102.51875,36.3484375 C102.654167,36.4786465 102.802603,36.5697914 102.964062,36.621875 C103.125522,36.6739586 103.273958,36.7 103.409375,36.7 Z M113.003125,37.29375 C112.565623,37.5958348 112.094273,37.8901027 111.589062,38.1765625 C111.083852,38.4630223 110.594273,38.7156239 110.120312,38.934375 C109.646352,39.1531261 109.216669,39.3302077 108.83125,39.465625 C108.445831,39.6010423 108.148959,39.66875 107.940625,39.66875 C107.54479,39.66875 107.206251,39.4526063 106.925,39.0203125 C106.643749,38.5880187 106.471875,37.9968788 106.409375,37.246875 C105.940623,37.7156273 105.469273,38.1062484 104.995312,38.41875 C104.521352,38.7312516 104.063023,38.9812491 103.620312,39.16875 C103.177602,39.3562509 102.753127,39.486458 102.346875,39.559375 C101.940623,39.632292 101.570835,39.66875 101.2375,39.66875 C100.779164,39.66875 100.333856,39.5906258 99.9015625,39.434375 C99.4692687,39.2781242 99.0812517,39.0437516 98.7375,38.73125 C98.3937483,38.4187484 98.1177094,38.0333356 97.909375,37.575 C97.7010406,37.1166644 97.596875,36.5854197 97.596875,35.98125 C97.596875,35.3041633 97.7218737,34.7234399 97.971875,34.2390625 C98.2218762,33.7546851 98.5395814,33.3197936 98.925,32.934375 C99.1750012,32.6843737 99.4640609,32.4421887 99.7921875,32.2078125 C100.120314,31.9734363 100.560414,31.7468761 101.1125,31.528125 C101.664586,31.3093739 102.362496,31.0958344 103.20625,30.8875 C104.050004,30.6791656 105.112494,30.4760427 106.39375,30.278125 L106.39375,28.54375 C106.39375,28.2312484 106.365104,27.9421888 106.307812,27.6765625 C106.250521,27.4109362 106.151563,27.1843759 106.010937,26.996875 C105.870312,26.8093741 105.68021,26.660938 105.440625,26.5515625 C105.20104,26.442187 104.904168,26.3875 104.55,26.3875 C104.331249,26.3875 104.109897,26.4317704 103.885937,26.5203125 C103.661978,26.6088546 103.464063,26.7364575 103.292187,26.903125 C103.120312,27.0697925 102.984896,27.2755196 102.885937,27.5203125 C102.786979,27.7651054 102.753125,28.0437484 102.784375,28.35625 C102.794792,28.4187503 102.701043,28.4994787 102.503125,28.5984375 C102.305207,28.6973963 102.052606,28.801562 101.745312,28.9109375 C101.438019,29.020313 101.099481,29.1270828 100.729687,29.23125 C100.359894,29.3354172 100.005731,29.4265621 99.6671875,29.5046875 C99.3286441,29.5828129 99.029168,29.6427081 98.76875,29.684375 C98.508332,29.7260419 98.3364587,29.7364584 98.253125,29.715625 L97.878125,28.79375 C98.138543,28.1374967 98.5447889,27.530732 99.096875,26.9734375 C99.6489611,26.416143 100.299996,25.9317729 101.05,25.5203125 C101.800004,25.1088521 102.620308,24.7859387 103.510937,24.5515625 C104.401567,24.3171863 105.31562,24.2 106.253125,24.2 C107.013545,24.2 107.669789,24.3015615 108.221875,24.5046875 C108.773961,24.7078135 109.227082,24.9838524 109.58125,25.3328125 C109.935418,25.6817726 110.195832,26.0932268 110.3625,26.5671875 C110.529167,27.0411482 110.6125,27.5437473 110.6125,28.075 L110.6125,35.16875 C110.6125,35.6062522 110.669791,35.9187491 110.784375,36.10625 C110.898959,36.2937509 111.049999,36.3875 111.2375,36.3875 C111.310417,36.3875 111.383333,36.3822917 111.45625,36.371875 C111.529167,36.3614583 111.617708,36.3406252 111.721875,36.309375 C111.826042,36.2781248 111.948437,36.2338545 112.089062,36.1765625 C112.229688,36.1192705 112.404166,36.0489588 112.6125,35.965625 L113.003125,37.29375 Z" id="acadia-copy-11" fill="#FFFFFF"></path>
            </g>
        </g>
    </g>
</svg>