<?xml version="1.0" encoding="UTF-8"?>
<svg width="32px" height="40px" viewBox="0 0 32 40" version="1.1" xmlns="http://www.w3.org/2000/svg" xmlns:xlink="http://www.w3.org/1999/xlink">
    <!-- Generator: Sketch 50.2 (55047) - http://www.bohemiancoding.com/sketch -->
    <title>Shape Copy 10</title>
    <desc>Created with Sketch.</desc>
    <defs></defs>
    <g id="Page-1" stroke="none" stroke-width="1" fill="none" fill-rule="evenodd" opacity="0.800000012">
        <g id="Desktop-Copy-3" transform="translate(-278.000000, -800.000000)" fill="#A5BFEC" fill-rule="nonzero">
            <path d="M300.10356,821.032636 L295.166285,819.693981 L295.166285,801.110296 C295.166285,800.49609 294.66232,800 294.048114,800 L279.110296,800 C278.49609,800 278,800.49609 278,801.110296 L278,826.26914 C278,830.135492 280.60644,833.545125 284.338926,834.553054 L303.938414,839.852554 C306.151132,840.46676 308.592209,839.104482 309.182792,836.836642 C311.033286,829.985877 306.9622,822.891004 300.10356,821.032636 Z M280.220593,802.220593 L292.945692,802.220593 L292.945692,804.779787 L280.220593,804.779787 L280.220593,802.220593 Z M287.984793,833.238022 L284.921635,832.411205 C282.157706,831.663133 280.220593,829.135437 280.220593,826.26914 L280.220593,823.930431 C282.338818,823.851686 284.417671,824.647005 285.929564,826.158898 C287.787932,828.025141 288.543879,830.710326 287.984793,833.238022 Z M307.03307,836.261808 C306.741715,837.356355 305.623544,837.994185 304.513248,837.710705 L290.126641,833.820731 C290.890462,830.529214 289.921906,827.017212 287.496578,824.591884 C285.567339,822.662646 282.921527,821.631094 280.220593,821.709838 L280.220593,807.008254 L292.945692,807.008254 L292.945692,820.552295 C292.945692,821.056259 293.284293,821.497228 293.764634,821.623219 L299.528726,823.182359 C305.198324,824.717875 308.568586,830.584335 307.03307,836.261808 Z" id="Shape-Copy-10"></path>
        </g>
    </g>
</svg>